<!DOCTYPE svg PUBLIC "-//W3C//DTD SVG 1.1//EN" "http://www.w3.org/Graphics/SVG/1.1/DTD/svg11.dtd">
<!-- Uploaded to: SVG Repo, www.svgrepo.com, Transformed by: SVG Repo Mixer Tools -->
<svg width="800px" height="800px" viewBox="0 0 32 32" id="svg5" version="1.1" xmlns="http://www.w3.org/2000/svg" xmlns:svg="http://www.w3.org/2000/svg" fill="#fedb71" stroke="#fedb71" stroke-width="0.00032">
<g id="SVGRepo_bgCarrier" stroke-width="0"/>
<g id="SVGRepo_tracerCarrier" stroke-linecap="round" stroke-linejoin="round"/>
<g id="SVGRepo_iconCarrier"> <defs id="defs2"/> <g id="layer1" transform="translate(-108,-196)"> <path d="m 121.89453,202.00586 c -0.92482,0 -1.77586,0.52633 -2.18945,1.35351 l -0.32227,0.64649 H 117 c -1.64501,0 -3,1.35499 -3,3 v 10 c 0,1.64501 1.35499,3 3,3 h 14 c 1.64501,0 3,-1.35499 3,-3 v -10 c 0,-1.64501 -1.35499,-3 -3,-3 h -2.38281 l -0.32227,-0.64649 c -0.41359,-0.82718 -1.26463,-1.35351 -2.18945,-1.35351 z m 0,2 h 4.21094 c 0.1715,0 0.32369,0.0947 0.40039,0.24805 l 0.59961,1.19921 A 1.0001,1.0001 0 0 0 128,206.00586 h 3 c 0.56413,0 1,0.43587 1,1 v 10 c 0,0.56413 -0.43587,1 -1,1 h -14 c -0.56413,0 -1,-0.43587 -1,-1 v -10 c 0,-0.56413 0.43587,-1 1,-1 h 3 a 1.0001,1.0001 0 0 0 0.89453,-0.55274 l 0.59961,-1.19921 c 0.0767,-0.1534 0.22889,-0.24805 0.40039,-0.24805 z" id="rect30394" style="color:#fedb71;fill:#fedb71;fill-rule:evenodd;stroke-linecap:round;stroke-linejoin:round;stroke-miterlimit:4.1;-inkscape-stroke:none"/> <path d="m 111,198.00586 a 1.0001,1.0001 0 0 0 -1,1 v 4 a 1,1 0 0 0 1,1 1,1 0 0 0 1,-1 v -3 h 3 a 1,1 0 0 0 1,-1 1,1 0 0 0 -1,-1 z" id="path30386" style="color:#fedb71;fill:#fedb71;fill-rule:evenodd;stroke-linecap:round;stroke-linejoin:round;stroke-miterlimit:4.1;-inkscape-stroke:none"/> <path d="m 111,220.00586 a 1,1 0 0 0 -1,1 v 4 a 1.0001,1.0001 0 0 0 1,1 h 4 a 1,1 0 0 0 1,-1 1,1 0 0 0 -1,-1 h -3 v -3 a 1,1 0 0 0 -1,-1 z" id="path30388" style="color:#fedb71;fill:#fedb71;fill-rule:evenodd;stroke-linecap:round;stroke-linejoin:round;stroke-miterlimit:4.1;-inkscape-stroke:none"/> <path d="m 133,198.00586 a 1,1 0 0 0 -1,1 1,1 0 0 0 1,1 h 3 v 3 a 1,1 0 0 0 1,1 1,1 0 0 0 1,-1 v -4 a 1.0001,1.0001 0 0 0 -1,-1 z" id="path30390" style="color:#fedb71;fill:#fedb71;fill-rule:evenodd;stroke-linecap:round;stroke-linejoin:round;stroke-miterlimit:4.1;-inkscape-stroke:none"/> <path d="m 137,220.00586 a 1,1 0 0 0 -1,1 v 3 h -3 a 1,1 0 0 0 -1,1 1,1 0 0 0 1,1 h 4 a 1.0001,1.0001 0 0 0 1,-1 v -4 a 1,1 0 0 0 -1,-1 z" id="path30392" style="color:#fedb71;fill:#fedb71;fill-rule:evenodd;stroke-linecap:round;stroke-linejoin:round;stroke-miterlimit:4.1;-inkscape-stroke:none"/> <path d="m 124,208.00586 c -2.19729,0 -4,1.80271 -4,4 0,2.19729 1.80271,4 4,4 2.19729,0 4,-1.80271 4,-4 0,-2.19729 -1.80271,-4 -4,-4 z m 0,2 c 1.11641,0 2,0.88359 2,2 0,1.11641 -0.88359,2 -2,2 -1.11641,0 -2,-0.88359 -2,-2 0,-1.11641 0.88359,-2 2,-2 z" id="path30410" style="color:#fedb71;fill:#fedb71;fill-rule:evenodd;stroke-linecap:round;stroke-linejoin:round;stroke-miterlimit:4.1;-inkscape-stroke:none"/> <path d="m 129,207.00631 a 1,1 0 0 0 -1,1 1,1 0 0 0 1,1 1,1 0 0 0 1,-1 1,1 0 0 0 -1,-1 z" id="path30412" style="color:#fedb71;fill:none;fill-rule:evenodd;stroke-linecap:round;stroke-linejoin:round;stroke-miterlimit:4.1;-inkscape-stroke:none"/> </g> </g>
</svg>