<!DOCTYPE svg PUBLIC "-//W3C//DTD SVG 1.1//EN" "http://www.w3.org/Graphics/SVG/1.1/DTD/svg11.dtd">
<!-- Uploaded to: SVG Repo, www.svgrepo.com, Transformed by: SVG Repo Mixer Tools -->
<svg width="800px" height="800px" viewBox="0 0 48 48" data-name="Layer 1" id="Layer_1" xmlns="http://www.w3.org/2000/svg" fill="#000000">
<g id="SVGRepo_bgCarrier" stroke-width="0"/>
<g id="SVGRepo_tracerCarrier" stroke-linecap="round" stroke-linejoin="round"/>
<g id="SVGRepo_iconCarrier"> <defs> <style> .cls-1, .cls-2 { fill: none; stroke: #fedb71; stroke-width: 2px; } .cls-1 { stroke-linecap: round; stroke-linejoin: round; } .cls-2 { stroke-miterlimit: 10; } </style> </defs> <title/> <line class="cls-1" x1="42" x2="1" y1="5" y2="5"/> <g> <line class="cls-2" x1="18.10064" x2="22.10064" y1="18.0624" y2="18.0624"/> <line class="cls-2" x1="16.10064" x2="9.10064" y1="18.0624" y2="18.0624"/> <line class="cls-2" x1="4.10064" x2="10" y1="22.0624" y2="22.0624"/> <line class="cls-2" x1="12" x2="18" y1="22.0624" y2="22.0624"/> </g> <g> <g> <polyline class="cls-1" points="26.263 27.263 23.763 30.263 26.263 33.263"/> <polyline class="cls-1" points="35.763 27.263 38.263 30.263 35.763 33.263"/> <line class="cls-1" x1="30.01346" x2="32.01346" y1="33.26346" y2="27.26346"/> </g> <circle class="cls-2" cx="30.76346" cy="30.26346" r="11.5"/> </g> <line class="cls-1" x1="38.6875" x2="47.02698" y1="38.6875" y2="47.02702"/> <g> <line class="cls-2" x1="18.10064" x2="22.10064" y1="18.0624" y2="18.0624"/> <line class="cls-2" x1="16.10064" x2="9.10064" y1="18.0624" y2="18.0624"/> <line class="cls-2" x1="4.10064" x2="10" y1="22.0624" y2="22.0624"/> <line class="cls-2" x1="12" x2="18" y1="22.0624" y2="22.0624"/> </g> <g> <g> <line class="cls-2" x1="4.10064" x2="7.10064" y1="30" y2="30"/> <line class="cls-2" x1="9.10064" x2="16" y1="30" y2="30"/> </g> <line class="cls-2" x1="16.10064" x2="9.10064" y1="34" y2="34"/> <line class="cls-2" x1="4.10064" x2="7" y1="38" y2="38"/> <line class="cls-2" x1="9" x2="18" y1="38" y2="38"/> </g> <line class="cls-2" x1="9" x2="16" y1="26" y2="26"/> <line class="cls-2" x1="16.10064" x2="9.10064" y1="42" y2="42"/> <line class="cls-2" x1="4.10064" x2="7.10064" y1="10" y2="10"/> <line class="cls-2" x1="9.10064" x2="28" y1="10" y2="10"/> <line class="cls-2" x1="4.10064" x2="7.10064" y1="10" y2="10"/> <line class="cls-2" x1="9.10064" x2="28" y1="10" y2="10"/> <line class="cls-2" x1="18.10064" x2="32" y1="14" y2="14"/> <line class="cls-2" x1="16.10064" x2="9.10064" y1="14" y2="14"/> <line class="cls-2" x1="18.10064" x2="32" y1="14" y2="14"/> <line class="cls-2" x1="16.10064" x2="9.10064" y1="14" y2="14"/> <polyline class="cls-1" points="42 20 42 1 1 1 1 47 36 47"/> </g>
</svg>