<!DOCTYPE svg PUBLIC "-//W3C//DTD SVG 1.1//EN" "http://www.w3.org/Graphics/SVG/1.1/DTD/svg11.dtd">
<!-- Uploaded to: SVG Repo, www.svgrepo.com, Transformed by: SVG Repo Mixer Tools -->
<svg fill="#fedb71" height="800px" width="800px" version="1.1" id="Layer_1" xmlns="http://www.w3.org/2000/svg" xmlns:xlink="http://www.w3.org/1999/xlink" viewBox="0 0 512 512" xml:space="preserve">
<g id="SVGRepo_bgCarrier" stroke-width="0"/>
<g id="SVGRepo_tracerCarrier" stroke-linecap="round" stroke-linejoin="round"/>
<g id="SVGRepo_iconCarrier"> <g> <g> <path d="M120.916,297.716H28.741c-5.633,0-10.199,4.567-10.199,10.199v193.886c0,5.632,4.566,10.199,10.199,10.199h92.175 c5.633,0,10.199-4.567,10.199-10.199V307.915C131.115,302.283,126.549,297.716,120.916,297.716z M110.717,491.602H38.94V318.114 h71.776V491.602z"/> </g> </g> <g> <g> <path d="M483.259,134.557h-92.175c-5.633,0-10.199,4.567-10.199,10.199v357.044c0,5.632,4.566,10.199,10.199,10.199h92.175 c5.633,0,10.199-4.567,10.199-10.199V144.756C493.458,139.123,488.892,134.557,483.259,134.557z M473.06,491.602h-71.776V154.955 h71.776V491.602z"/> </g> </g> <g> <g> <path d="M302.087,218.255h-92.175c-5.633,0-10.199,4.567-10.199,10.199v273.346c0,5.632,4.566,10.199,10.199,10.199h92.175 c5.633,0,10.199-4.567,10.199-10.199V228.454C312.286,222.822,307.72,218.255,302.087,218.255z M291.888,491.602h-71.776V238.654 h71.776V491.602z"/> </g> </g> <g> <g> <path d="M453.063,298.776c-5.633,0-10.199,4.567-10.199,10.199v9.535c0,5.632,4.566,10.199,10.199,10.199 s10.199-4.567,10.199-10.199v-9.535C463.262,303.343,458.696,298.776,453.063,298.776z"/> </g> </g> <g> <g> <path d="M453.063,345.389c-5.633,0-10.199,4.567-10.199,10.199v115.487c0,5.633,4.566,10.2,10.199,10.2 s10.199-4.567,10.199-10.199V355.588C463.262,349.956,458.696,345.389,453.063,345.389z"/> </g> </g> <g> <g> <path d="M444.52,14.385L397.705,0.428c-5.398-1.61-11.079,1.463-12.688,6.86c-1.609,5.398,1.462,11.078,6.86,12.688l21.634,6.45 L248.953,138.948L68.705,215.896c-5.18,2.212-7.587,8.204-5.376,13.384c1.654,3.875,5.423,6.198,9.385,6.198 c1.335,0,2.694-0.265,3.999-0.822l181.171-77.342c0.614-0.263,1.201-0.584,1.752-0.961L425.33,43.057l-5.865,19.672 c-1.609,5.398,1.462,11.078,6.86,12.688c0.972,0.29,1.953,0.428,2.918,0.428c4.394,0,8.451-2.863,9.77-7.288l12.367-41.484 C452.99,21.674,449.919,15.994,444.52,14.385z"/> </g> </g> </g>
</svg>